<?xml version="1.0" encoding="UTF-8" standalone="no"?>
<!-- Created with Inkscape (http://www.inkscape.org/) -->

<svg
   xmlns:dc="http://purl.org/dc/elements/1.1/"
   xmlns:cc="http://creativecommons.org/ns#"
   xmlns:rdf="http://www.w3.org/1999/02/22-rdf-syntax-ns#"
   xmlns:svg="http://www.w3.org/2000/svg"
   xmlns="http://www.w3.org/2000/svg"
   xmlns:sodipodi="http://sodipodi.sourceforge.net/DTD/sodipodi-0.dtd"
   xmlns:inkscape="http://www.inkscape.org/namespaces/inkscape"
   width="320"
   height="1600"
   viewBox="0 0 320 1600"
   id="svg2"
   version="1.1"
   inkscape:version="0.91 r13725"
   sodipodi:docname="fins-closed.svg">
  <defs
     id="defs4" />
  <sodipodi:namedview
     id="base"
     pagecolor="#ffffff"
     bordercolor="#666666"
     borderopacity="1.0"
     inkscape:pageopacity="0.0"
     inkscape:pageshadow="2"
     inkscape:zoom="2"
     inkscape:cx="227.2416"
     inkscape:cy="963.82988"
     inkscape:document-units="px"
     inkscape:current-layer="layer1"
     showgrid="false"
     units="px"
     inkscape:window-width="1600"
     inkscape:window-height="859"
     inkscape:window-x="0"
     inkscape:window-y="20"
     inkscape:window-maximized="0"
     inkscape:object-nodes="true"
     inkscape:snap-smooth-nodes="true">
    <inkscape:grid
       type="xygrid"
       id="grid3336" />
  </sodipodi:namedview>
  <metadata
     id="metadata7">
    <rdf:RDF>
      <cc:Work
         rdf:about="">
        <dc:format>image/svg+xml</dc:format>
        <dc:type
           rdf:resource="http://purl.org/dc/dcmitype/StillImage" />
        <dc:title></dc:title>
      </cc:Work>
    </rdf:RDF>
  </metadata>
  <g
     inkscape:label="Layer 1"
     inkscape:groupmode="layer"
     id="layer1"
     transform="translate(0,547.63786)">
    <g
       id="g4346"
       transform="translate(-7,-24)">
      <path
         sodipodi:nodetypes="ccccccccc"
         inkscape:connector-curvature="0"
         id="path4302"
         d="m 190,156.36214 c -1,0 -2,2 -2,4 l 0,40 c 0,1 2,4 3,4 l 15,0 c 1,0 2,-3 2,-4 l 0,-40 c 0,-4 -2,-4 -2,-4 z"
         style="fill:#ffffff;fill-opacity:1;fill-rule:evenodd;stroke:#404040;stroke-width:2;stroke-linecap:butt;stroke-linejoin:miter;stroke-miterlimit:4;stroke-dasharray:none;stroke-opacity:1" />
      <path
         sodipodi:nodetypes="cccc"
         inkscape:connector-curvature="0"
         id="path4304"
         d="m 194,156.36214 c -1,0 -2,2 -2,4 l 0,40 c 0,1 3,4 4,4"
         style="fill:none;fill-rule:evenodd;stroke:#404040;stroke-width:2;stroke-linecap:butt;stroke-linejoin:miter;stroke-miterlimit:4;stroke-dasharray:none;stroke-opacity:1" />
      <path
         sodipodi:nodetypes="cc"
         inkscape:connector-curvature="0"
         id="path4306"
         d="m 207.4006,157.59376 c -1.87552,3.76562 -7.95335,15.32113 -15.4006,22.76838"
         style="fill:none;fill-rule:evenodd;stroke:#404040;stroke-width:1.5;stroke-linecap:butt;stroke-linejoin:miter;stroke-miterlimit:4;stroke-dasharray:none;stroke-opacity:1" />
      <path
         style="fill:none;fill-rule:evenodd;stroke:#404040;stroke-width:1.5;stroke-linecap:butt;stroke-linejoin:miter;stroke-miterlimit:4;stroke-dasharray:none;stroke-opacity:1"
         d="m 208,164.36214 c 0,0 -7,15 -16,24"
         id="path4308"
         inkscape:connector-curvature="0"
         sodipodi:nodetypes="cc" />
      <path
         style="fill:none;fill-rule:evenodd;stroke:#404040;stroke-width:1.5;stroke-linecap:butt;stroke-linejoin:miter;stroke-miterlimit:4;stroke-dasharray:none;stroke-opacity:1"
         d="m 208,172.36214 c 0,0 -7,15 -16,24"
         id="path4310"
         inkscape:connector-curvature="0"
         sodipodi:nodetypes="cc" />
      <path
         sodipodi:nodetypes="cc"
         inkscape:connector-curvature="0"
         id="path4312"
         d="m 208,180.36214 c 0,0 -6.22112,13.33096 -14.4742,22.39848"
         style="fill:none;fill-rule:evenodd;stroke:#404040;stroke-width:1.5;stroke-linecap:butt;stroke-linejoin:miter;stroke-miterlimit:4;stroke-dasharray:none;stroke-opacity:1" />
      <path
         sodipodi:nodetypes="cc"
         inkscape:connector-curvature="0"
         id="path4314"
         d="m 208,188.36214 c 0,0 -3.81279,8.17026 -9.42841,16.06896"
         style="fill:none;fill-rule:evenodd;stroke:#404040;stroke-width:1.5;stroke-linecap:butt;stroke-linejoin:miter;stroke-miterlimit:4;stroke-dasharray:none;stroke-opacity:1" />
      <path
         style="fill:none;fill-rule:evenodd;stroke:#404040;stroke-width:1.5;stroke-linecap:butt;stroke-linejoin:miter;stroke-miterlimit:4;stroke-dasharray:none;stroke-opacity:1"
         d="m 208,196.36214 c 0,0 -1.6249,3.48193 -4.31551,8.09718"
         id="path4316"
         inkscape:connector-curvature="0"
         sodipodi:nodetypes="cc" />
      <path
         style="fill:none;fill-rule:evenodd;stroke:#404040;stroke-width:1.5;stroke-linecap:butt;stroke-linejoin:miter;stroke-miterlimit:4;stroke-dasharray:none;stroke-opacity:1"
         d="m 198.52954,156.49019 c -1.9825,2.78356 -4.18835,5.53076 -6.52954,7.87195"
         id="path4318"
         inkscape:connector-curvature="0"
         sodipodi:nodetypes="cc" />
      <path
         sodipodi:nodetypes="cc"
         inkscape:connector-curvature="0"
         id="path4320"
         d="M 203.64595,156.52538 C 200.754,161.47887 196.64316,167.71898 192,172.36214"
         style="fill:none;fill-rule:evenodd;stroke:#404040;stroke-width:1.5;stroke-linecap:butt;stroke-linejoin:miter;stroke-miterlimit:4;stroke-dasharray:none;stroke-opacity:1" />
      <path
         sodipodi:nodetypes="cc"
         inkscape:connector-curvature="0"
         id="path4322"
         d="m 192,172.36214 c 0,0 10.85069,11 16,24"
         style="fill:none;fill-rule:evenodd;stroke:#404040;stroke-width:1.5;stroke-linecap:butt;stroke-linejoin:miter;stroke-miterlimit:4;stroke-dasharray:none;stroke-opacity:1" />
      <path
         style="fill:none;fill-rule:evenodd;stroke:#404040;stroke-width:1.5;stroke-linecap:butt;stroke-linejoin:miter;stroke-miterlimit:4;stroke-dasharray:none;stroke-opacity:1"
         d="m 192,164.36214 c 0,0 10.85069,11 16,24"
         id="path4324"
         inkscape:connector-curvature="0"
         sodipodi:nodetypes="cc" />
      <path
         sodipodi:nodetypes="cc"
         inkscape:connector-curvature="0"
         id="path4326"
         d="m 192,156.36214 c 0,0 10.85069,11 16,24"
         style="fill:none;fill-rule:evenodd;stroke:#404040;stroke-width:1.5;stroke-linecap:butt;stroke-linejoin:miter;stroke-miterlimit:4;stroke-dasharray:none;stroke-opacity:1" />
      <path
         style="fill:none;fill-rule:evenodd;stroke:#404040;stroke-width:1.5;stroke-linecap:butt;stroke-linejoin:miter;stroke-miterlimit:4;stroke-dasharray:none;stroke-opacity:1"
         d="m 198.94622,156.64896 c 3.15532,4.24691 6.70013,9.77112 9.05378,15.71318"
         id="path4328"
         inkscape:connector-curvature="0"
         sodipodi:nodetypes="cc" />
      <path
         sodipodi:nodetypes="cc"
         inkscape:connector-curvature="0"
         id="path4330"
         d="m 203.99592,156.24697 c 1.4911,2.54826 2.88277,5.2843 4.00408,8.11517"
         style="fill:none;fill-rule:evenodd;stroke:#404040;stroke-width:1.5;stroke-linecap:butt;stroke-linejoin:miter;stroke-miterlimit:4;stroke-dasharray:none;stroke-opacity:1" />
      <path
         style="fill:none;fill-rule:evenodd;stroke:#404040;stroke-width:1.5;stroke-linecap:butt;stroke-linejoin:miter;stroke-miterlimit:4;stroke-dasharray:none;stroke-opacity:1"
         d="m 192,188.36214 c 0,0 6.60045,6.69128 11.94851,15.80394"
         id="path4332"
         inkscape:connector-curvature="0"
         sodipodi:nodetypes="cc" />
      <path
         sodipodi:nodetypes="cc"
         inkscape:connector-curvature="0"
         id="path4334"
         d="m 192,180.36214 c 0,0 9.94467,10.08151 15.31116,22.3479"
         style="fill:none;fill-rule:evenodd;stroke:#404040;stroke-width:1.5;stroke-linecap:butt;stroke-linejoin:miter;stroke-miterlimit:4;stroke-dasharray:none;stroke-opacity:1" />
      <path
         style="fill:none;fill-rule:evenodd;stroke:#404040;stroke-width:1.5;stroke-linecap:butt;stroke-linejoin:miter;stroke-miterlimit:4;stroke-dasharray:none;stroke-opacity:1"
         d="m 192,196.36214 c 0,0 3.00567,3.04703 6.60389,7.82897"
         id="path4338"
         inkscape:connector-curvature="0"
         sodipodi:nodetypes="cc" />
      <path
         sodipodi:nodetypes="cccccccsc"
         inkscape:connector-curvature="0"
         id="path4340"
         d="m 191,140.36214 0,6 c 0,4 6,6 6,6 l 0,4 5,0 0,-4 c 0,0 3,-2 3,-6 l 0,-6 c 0,-4 -14,-4 -14,0 z"
         style="fill:#ffffff;fill-opacity:1;fill-rule:evenodd;stroke:#404040;stroke-width:2;stroke-linecap:butt;stroke-linejoin:miter;stroke-miterlimit:4;stroke-dasharray:none;stroke-opacity:1" />
      <path
         sodipodi:nodetypes="cccc"
         inkscape:connector-curvature="0"
         id="path4342"
         d="m 199,137.36214 c -2,0 -4,2 -4,3 l 0,7 c 0,2 2,5 2,5"
         style="fill:none;fill-rule:evenodd;stroke:#404040;stroke-width:2;stroke-linecap:round;stroke-linejoin:miter;stroke-miterlimit:4;stroke-dasharray:none;stroke-opacity:1" />
      <path
         style="fill:none;fill-rule:evenodd;stroke:#404040;stroke-width:2;stroke-linecap:butt;stroke-linejoin:miter;stroke-miterlimit:4;stroke-dasharray:none;stroke-opacity:1"
         d="m 203,151.36214 c 0,-4 -1,-5 -3,-5 -2,0 -3,3 -3,6 l 5,0"
         id="path4344"
         inkscape:connector-curvature="0"
         sodipodi:nodetypes="cccc" />
      <path
         style="fill:none;fill-rule:evenodd;stroke:#404040;stroke-width:2;stroke-linecap:butt;stroke-linejoin:miter;stroke-miterlimit:4;stroke-dasharray:none;stroke-opacity:1"
         d="m 203,156.36214 c 1,0 2,2 2,4 l 0,40 c 0,1 -3,4 -4,4"
         id="path6117"
         inkscape:connector-curvature="0"
         sodipodi:nodetypes="cccc" />
    </g>
    <g
       transform="matrix(-1,0,0,1,327,-24)"
       id="g6119">
      <path
         style="fill:#ffffff;fill-opacity:1;fill-rule:evenodd;stroke:#404040;stroke-width:2;stroke-linecap:butt;stroke-linejoin:miter;stroke-miterlimit:4;stroke-dasharray:none;stroke-opacity:1"
         d="m 190,156.36214 c -1,0 -2,2 -2,4 l 0,40 c 0,1 2,4 3,4 l 15,0 c 1,0 2,-3 2,-4 l 0,-40 c 0,-4 -2,-4 -2,-4 z"
         id="path6121"
         inkscape:connector-curvature="0"
         sodipodi:nodetypes="ccccccccc" />
      <path
         style="fill:none;fill-rule:evenodd;stroke:#404040;stroke-width:2;stroke-linecap:butt;stroke-linejoin:miter;stroke-miterlimit:4;stroke-dasharray:none;stroke-opacity:1"
         d="m 194,156.36214 c -1,0 -2,2 -2,4 l 0,40 c 0,1 3,4 4,4"
         id="path6123"
         inkscape:connector-curvature="0"
         sodipodi:nodetypes="cccc" />
      <path
         style="fill:none;fill-rule:evenodd;stroke:#404040;stroke-width:1.5;stroke-linecap:butt;stroke-linejoin:miter;stroke-miterlimit:4;stroke-dasharray:none;stroke-opacity:1"
         d="m 207.4006,157.59376 c -1.87552,3.76562 -7.95335,15.32113 -15.4006,22.76838"
         id="path6125"
         inkscape:connector-curvature="0"
         sodipodi:nodetypes="cc" />
      <path
         sodipodi:nodetypes="cc"
         inkscape:connector-curvature="0"
         id="path6127"
         d="m 208,164.36214 c 0,0 -7,15 -16,24"
         style="fill:none;fill-rule:evenodd;stroke:#404040;stroke-width:1.5;stroke-linecap:butt;stroke-linejoin:miter;stroke-miterlimit:4;stroke-dasharray:none;stroke-opacity:1" />
      <path
         sodipodi:nodetypes="cc"
         inkscape:connector-curvature="0"
         id="path6129"
         d="m 208,172.36214 c 0,0 -7,15 -16,24"
         style="fill:none;fill-rule:evenodd;stroke:#404040;stroke-width:1.5;stroke-linecap:butt;stroke-linejoin:miter;stroke-miterlimit:4;stroke-dasharray:none;stroke-opacity:1" />
      <path
         style="fill:none;fill-rule:evenodd;stroke:#404040;stroke-width:1.5;stroke-linecap:butt;stroke-linejoin:miter;stroke-miterlimit:4;stroke-dasharray:none;stroke-opacity:1"
         d="m 208,180.36214 c 0,0 -6.22112,13.33096 -14.4742,22.39848"
         id="path6131"
         inkscape:connector-curvature="0"
         sodipodi:nodetypes="cc" />
      <path
         style="fill:none;fill-rule:evenodd;stroke:#404040;stroke-width:1.5;stroke-linecap:butt;stroke-linejoin:miter;stroke-miterlimit:4;stroke-dasharray:none;stroke-opacity:1"
         d="m 208,188.36214 c 0,0 -3.81279,8.17026 -9.42841,16.06896"
         id="path6133"
         inkscape:connector-curvature="0"
         sodipodi:nodetypes="cc" />
      <path
         sodipodi:nodetypes="cc"
         inkscape:connector-curvature="0"
         id="path6135"
         d="m 208,196.36214 c 0,0 -1.6249,3.48193 -4.31551,8.09718"
         style="fill:none;fill-rule:evenodd;stroke:#404040;stroke-width:1.5;stroke-linecap:butt;stroke-linejoin:miter;stroke-miterlimit:4;stroke-dasharray:none;stroke-opacity:1" />
      <path
         sodipodi:nodetypes="cc"
         inkscape:connector-curvature="0"
         id="path6137"
         d="m 198.52954,156.49019 c -1.9825,2.78356 -4.18835,5.53076 -6.52954,7.87195"
         style="fill:none;fill-rule:evenodd;stroke:#404040;stroke-width:1.5;stroke-linecap:butt;stroke-linejoin:miter;stroke-miterlimit:4;stroke-dasharray:none;stroke-opacity:1" />
      <path
         style="fill:none;fill-rule:evenodd;stroke:#404040;stroke-width:1.5;stroke-linecap:butt;stroke-linejoin:miter;stroke-miterlimit:4;stroke-dasharray:none;stroke-opacity:1"
         d="M 203.64595,156.52538 C 200.754,161.47887 196.64316,167.71898 192,172.36214"
         id="path6139"
         inkscape:connector-curvature="0"
         sodipodi:nodetypes="cc" />
      <path
         style="fill:none;fill-rule:evenodd;stroke:#404040;stroke-width:1.5;stroke-linecap:butt;stroke-linejoin:miter;stroke-miterlimit:4;stroke-dasharray:none;stroke-opacity:1"
         d="m 192,172.36214 c 0,0 10.85069,11 16,24"
         id="path6141"
         inkscape:connector-curvature="0"
         sodipodi:nodetypes="cc" />
      <path
         sodipodi:nodetypes="cc"
         inkscape:connector-curvature="0"
         id="path6143"
         d="m 192,164.36214 c 0,0 10.85069,11 16,24"
         style="fill:none;fill-rule:evenodd;stroke:#404040;stroke-width:1.5;stroke-linecap:butt;stroke-linejoin:miter;stroke-miterlimit:4;stroke-dasharray:none;stroke-opacity:1" />
      <path
         style="fill:none;fill-rule:evenodd;stroke:#404040;stroke-width:1.5;stroke-linecap:butt;stroke-linejoin:miter;stroke-miterlimit:4;stroke-dasharray:none;stroke-opacity:1"
         d="m 192,156.36214 c 0,0 10.85069,11 16,24"
         id="path6145"
         inkscape:connector-curvature="0"
         sodipodi:nodetypes="cc" />
      <path
         sodipodi:nodetypes="cc"
         inkscape:connector-curvature="0"
         id="path6147"
         d="m 198.94622,156.64896 c 3.15532,4.24691 6.70013,9.77112 9.05378,15.71318"
         style="fill:none;fill-rule:evenodd;stroke:#404040;stroke-width:1.5;stroke-linecap:butt;stroke-linejoin:miter;stroke-miterlimit:4;stroke-dasharray:none;stroke-opacity:1" />
      <path
         style="fill:none;fill-rule:evenodd;stroke:#404040;stroke-width:1.5;stroke-linecap:butt;stroke-linejoin:miter;stroke-miterlimit:4;stroke-dasharray:none;stroke-opacity:1"
         d="m 203.99592,156.24697 c 1.4911,2.54826 2.88277,5.2843 4.00408,8.11517"
         id="path6149"
         inkscape:connector-curvature="0"
         sodipodi:nodetypes="cc" />
      <path
         sodipodi:nodetypes="cc"
         inkscape:connector-curvature="0"
         id="path6151"
         d="m 192,188.36214 c 0,0 6.60045,6.69128 11.94851,15.80394"
         style="fill:none;fill-rule:evenodd;stroke:#404040;stroke-width:1.5;stroke-linecap:butt;stroke-linejoin:miter;stroke-miterlimit:4;stroke-dasharray:none;stroke-opacity:1" />
      <path
         style="fill:none;fill-rule:evenodd;stroke:#404040;stroke-width:1.5;stroke-linecap:butt;stroke-linejoin:miter;stroke-miterlimit:4;stroke-dasharray:none;stroke-opacity:1"
         d="m 192,180.36214 c 0,0 9.94467,10.08151 15.31116,22.3479"
         id="path6153"
         inkscape:connector-curvature="0"
         sodipodi:nodetypes="cc" />
      <path
         sodipodi:nodetypes="cc"
         inkscape:connector-curvature="0"
         id="path6155"
         d="m 192,196.36214 c 0,0 3.00567,3.04703 6.60389,7.82897"
         style="fill:none;fill-rule:evenodd;stroke:#404040;stroke-width:1.5;stroke-linecap:butt;stroke-linejoin:miter;stroke-miterlimit:4;stroke-dasharray:none;stroke-opacity:1" />
      <path
         style="fill:#ffffff;fill-opacity:1;fill-rule:evenodd;stroke:#404040;stroke-width:2;stroke-linecap:butt;stroke-linejoin:miter;stroke-miterlimit:4;stroke-dasharray:none;stroke-opacity:1"
         d="m 191,140.36214 0,6 c 0,4 6,6 6,6 l 0,4 5,0 0,-4 c 0,0 3,-2 3,-6 l 0,-6 c 0,-4 -14,-4 -14,0 z"
         id="path6157"
         inkscape:connector-curvature="0"
         sodipodi:nodetypes="cccccccsc" />
      <path
         style="fill:none;fill-rule:evenodd;stroke:#404040;stroke-width:2;stroke-linecap:round;stroke-linejoin:miter;stroke-miterlimit:4;stroke-dasharray:none;stroke-opacity:1"
         d="m 199,137.36214 c -2,0 -4,2 -4,3 l 0,7 c 0,2 2,5 2,5"
         id="path6159"
         inkscape:connector-curvature="0"
         sodipodi:nodetypes="cccc" />
      <path
         sodipodi:nodetypes="cccc"
         inkscape:connector-curvature="0"
         id="path6161"
         d="m 203,151.36214 c 0,-4 -1,-5 -3,-5 -2,0 -3,3 -3,6 l 5,0"
         style="fill:none;fill-rule:evenodd;stroke:#404040;stroke-width:2;stroke-linecap:butt;stroke-linejoin:miter;stroke-miterlimit:4;stroke-dasharray:none;stroke-opacity:1" />
      <path
         sodipodi:nodetypes="cccc"
         inkscape:connector-curvature="0"
         id="path6163"
         d="m 203,156.36214 c 1,0 2,2 2,4 l 0,40 c 0,1 -3,4 -4,4"
         style="fill:none;fill-rule:evenodd;stroke:#404040;stroke-width:2;stroke-linecap:butt;stroke-linejoin:miter;stroke-miterlimit:4;stroke-dasharray:none;stroke-opacity:1" />
    </g>
  </g>
</svg>
