<?xml version="1.0" encoding="UTF-8" standalone="no"?>
<!-- Created with Inkscape (http://www.inkscape.org/) -->

<svg
   xmlns:dc="http://purl.org/dc/elements/1.1/"
   xmlns:cc="http://creativecommons.org/ns#"
   xmlns:rdf="http://www.w3.org/1999/02/22-rdf-syntax-ns#"
   xmlns:svg="http://www.w3.org/2000/svg"
   xmlns="http://www.w3.org/2000/svg"
   xmlns:sodipodi="http://sodipodi.sourceforge.net/DTD/sodipodi-0.dtd"
   xmlns:inkscape="http://www.inkscape.org/namespaces/inkscape"
   width="320"
   height="1600"
   viewBox="0 0 320 1600"
   id="svg2"
   version="1.1"
   inkscape:version="0.91 r13725"
   sodipodi:docname="payload-dragon-trunk-panels-closed.svg">
  <defs
     id="defs4" />
  <sodipodi:namedview
     id="base"
     pagecolor="#ffffff"
     bordercolor="#666666"
     borderopacity="1.0"
     inkscape:pageopacity="0.0"
     inkscape:pageshadow="2"
     inkscape:zoom="16"
     inkscape:cx="212.88953"
     inkscape:cy="1255.0926"
     inkscape:document-units="px"
     inkscape:current-layer="layer1"
     showgrid="true"
     units="px"
     inkscape:window-width="1600"
     inkscape:window-height="859"
     inkscape:window-x="0"
     inkscape:window-y="20"
     inkscape:window-maximized="0"
     inkscape:object-nodes="true"
     inkscape:snap-smooth-nodes="true"
     inkscape:snap-global="true"
     inkscape:snap-center="true">
    <inkscape:grid
       type="xygrid"
       id="grid3336" />
  </sodipodi:namedview>
  <metadata
     id="metadata7">
    <rdf:RDF>
      <cc:Work
         rdf:about="">
        <dc:format>image/svg+xml</dc:format>
        <dc:type
           rdf:resource="http://purl.org/dc/dcmitype/StillImage" />
        <dc:title />
      </cc:Work>
    </rdf:RDF>
  </metadata>
  <g
     inkscape:label="Layer 1"
     inkscape:groupmode="layer"
     id="layer1"
     transform="translate(0,547.63786)">
    <path
       sodipodi:nodetypes="cccccc"
       inkscape:connector-curvature="0"
       id="path4548"
       d="m 130,-267.63786 -16,0 c -2,0 -4,2 -4,4 l 0,60 20,0 z"
       style="fill:#ffffff;fill-opacity:1;fill-rule:evenodd;stroke:#404040;stroke-width:2;stroke-linecap:butt;stroke-linejoin:miter;stroke-miterlimit:4;stroke-dasharray:none;stroke-opacity:1" />
    <path
       style="fill:#ffffff;fill-opacity:1;fill-rule:evenodd;stroke:#404040;stroke-width:2;stroke-linecap:butt;stroke-linejoin:miter;stroke-miterlimit:4;stroke-dasharray:none;stroke-opacity:1"
       d="m 122,-267.63786 c -2,0 -4,2 -4,4 l 0,60"
       id="path4550"
       inkscape:connector-curvature="0"
       sodipodi:nodetypes="ccc" />
    <path
       style="fill:#ffffff;fill-opacity:1;fill-rule:evenodd;stroke:#404040;stroke-width:2;stroke-linecap:butt;stroke-linejoin:miter;stroke-miterlimit:4;stroke-dasharray:none;stroke-opacity:1"
       d="m 116,-203.63786 88,0 0,-72 -88,0 z"
       id="path4515"
       inkscape:connector-curvature="0"
       sodipodi:nodetypes="ccccc" />
    <path
       style="fill:#ffffff;fill-opacity:1;fill-rule:evenodd;stroke:#404040;stroke-width:2;stroke-linecap:butt;stroke-linejoin:miter;stroke-miterlimit:4;stroke-dasharray:none;stroke-opacity:1"
       d="m 172,-267.63786 7,0 3,-11 -2,-10 -1,-1 -4,0 -1,1 1,10 -1,4 -2,0 z"
       id="path4517"
       inkscape:connector-curvature="0"
       sodipodi:nodetypes="ccccccccccc" />
    <path
       style="fill:#404040;fill-opacity:1;fill-rule:evenodd;stroke:none;stroke-width:1px;stroke-linecap:butt;stroke-linejoin:miter;stroke-opacity:1"
       d="m 174,-274.63786 0,4 2,-5 0,-3 z"
       id="path4519"
       inkscape:connector-curvature="0"
       sodipodi:nodetypes="ccccc" />
    <path
       style="fill:none;fill-opacity:1;fill-rule:evenodd;stroke:#404040;stroke-width:2;stroke-linecap:butt;stroke-linejoin:miter;stroke-miterlimit:4;stroke-dasharray:none;stroke-opacity:1"
       d="m 140,-203.63786 0,-30 c 0,-1 1,-2 2,-2 l 4,0 c 1,0 2,1 2,2 l 0,30"
       id="path4521"
       inkscape:connector-curvature="0"
       sodipodi:nodetypes="cccccc" />
    <path
       sodipodi:nodetypes="ccccccccc"
       inkscape:connector-curvature="0"
       id="path4523"
       d="m 158,-235.63786 c -1,0 -2,-1 -2,-2 l 0,-8 c 0,-1 1,-2 2,-2 l 4,0 c 1,0 2,1 2,2 l 0,8 c 0,1 -1,2 -2,2 z"
       style="fill:none;fill-opacity:1;fill-rule:evenodd;stroke:#404040;stroke-width:2;stroke-linecap:butt;stroke-linejoin:miter;stroke-miterlimit:4;stroke-dasharray:none;stroke-opacity:1" />
    <path
       style="fill:#ffffff;fill-opacity:1;fill-rule:evenodd;stroke:#404040;stroke-width:2;stroke-linecap:butt;stroke-linejoin:miter;stroke-miterlimit:4;stroke-dasharray:none;stroke-opacity:1"
       d="m 208,-267.63786 -16,0 c -2,0 -4,2 -4,4 l 0,60 20,0 z"
       id="path4544"
       inkscape:connector-curvature="0"
       sodipodi:nodetypes="cccccc" />
    <path
       sodipodi:nodetypes="ccc"
       inkscape:connector-curvature="0"
       id="path4546"
       d="m 200,-267.63786 c -2,0 -4,2 -4,4 l 0,60"
       style="fill:#ffffff;fill-opacity:1;fill-rule:evenodd;stroke:#404040;stroke-width:2;stroke-linecap:butt;stroke-linejoin:miter;stroke-miterlimit:4;stroke-dasharray:none;stroke-opacity:1" />
  </g>
</svg>
